<svg width="512" height="512" viewBox="0 0 512 512" fill="none" xmlns="http://www.w3.org/2000/svg">
<path d="M429.4 165.2C475.019 165.2 512 128.219 512 82.6C512 36.9813 475.019 0 429.4 0C383.781 0 346.8 36.9813 346.8 82.6C346.8 128.219 383.781 165.2 429.4 165.2Z" fill="#C38C66"/>
<path d="M429.4 132.1C456.738 132.1 478.9 109.938 478.9 82.6C478.9 55.2619 456.738 33.1 429.4 33.1C402.062 33.1 379.9 55.2619 379.9 82.6C379.9 109.938 402.062 132.1 429.4 132.1Z" fill="#F4DBB3"/>
<path d="M82.6 165.2C128.219 165.2 165.2 128.219 165.2 82.6C165.2 36.9813 128.219 0 82.6 0C36.9813 0 0 36.9813 0 82.6C0 128.219 36.9813 165.2 82.6 165.2Z" fill="#B57F5F"/>
<path d="M82.6 132.1C109.938 132.1 132.1 109.938 132.1 82.6C132.1 55.2619 109.938 33.1 82.6 33.1C55.2619 33.1 33.1 55.2619 33.1 82.6C33.1 109.938 55.2619 132.1 82.6 132.1Z" fill="#EAC89F"/>
<path d="M487.2 280.8C487.2 339.4 465.4 392.9 429.5 433.7C387.1 481.8 325.1 506.6 256 506.6C128.3 506.6 35 408.6 35 280.9C35 211.8 55.1 149.8 103.1 107.4C143.8 71.5 197.4 49.7 256 49.7C383.7 49.5 487.2 153.1 487.2 280.8Z" fill="#C38C66"/>
<path d="M276.6 491.4C148.9 491.4 45.4 387.9 45.4 260.2C45.4 201.6 67.2 148.1 103.1 107.3C55 149.7 24.7 211.7 24.7 280.8C24.8 408.5 128.3 512 256 512C325.1 512 387.1 481.7 429.5 433.6C388.8 469.6 335.2 491.4 276.6 491.4Z" fill="#B57F5F"/>
<path d="M366.3 349.3C366.3 374.7 357.5 398.1 342.7 416.5C323 441 292.8 450.9 259 450.9C199.7 450.9 159.5 408.5 159.5 349.2C159.5 315.3 167.3 285.2 191.8 265.5C210.2 250.7 233.6 241.9 259 241.9C318.2 241.9 366.3 290 366.3 349.3Z" fill="#F4DBB3"/>
<path d="M275.4 440.1C216.1 440.1 168 392 168 332.7C168 307.3 176.8 283.9 191.6 265.5C167.1 285.2 151.5 315.4 151.5 349.2C151.5 408.5 199.6 456.6 258.9 456.6C292.8 456.6 322.9 440.9 342.6 416.5C324.2 431.2 300.9 440.1 275.4 440.1Z" fill="#EAC89F"/>
<path d="M310.7 325.7C306.1 325.7 302.4 329.4 302.4 334C302.4 343.1 295 350.5 285.9 350.5C276.8 350.5 269.4 343.1 269.4 334V309.2C269.4 304.6 265.7 300.9 261.1 300.9C256.5 300.9 252.8 304.6 252.8 309.2V334C252.8 343.1 245.4 350.5 236.3 350.5C227.2 350.5 219.8 343.1 219.8 334C219.8 329.4 216.1 325.7 211.5 325.7C206.9 325.7 203.2 329.4 203.2 334C203.2 352.2 218 367 236.2 367C246.1 367 254.9 362.5 261 355.6C267.1 362.5 275.9 367 285.8 367C304 367 318.8 352.2 318.8 334C318.9 329.3 315.2 325.7 310.7 325.7Z" fill="#6E4848"/>
<path d="M226.1 290.6L243.6 308.1C253.3 317.8 269 317.8 278.6 308.1L296.1 290.6C301.4 285.3 297.7 276.1 290.1 276.1H232C224.5 276.1 220.7 285.2 226.1 290.6Z" fill="#4B3F4E"/>
<path d="M157.9 218.3C169.277 218.3 178.5 217.002 178.5 215.4C178.5 213.798 169.277 212.5 157.9 212.5C146.523 212.5 137.3 213.798 137.3 215.4C137.3 217.002 146.523 218.3 157.9 218.3Z" fill="#4B3F4E"/>
<path d="M364.3 218.3C375.677 218.3 384.9 217.002 384.9 215.4C384.9 213.798 375.677 212.5 364.3 212.5C352.923 212.5 343.7 213.798 343.7 215.4C343.7 217.002 352.923 218.3 364.3 218.3Z" fill="#4B3F4E"/>
</svg>
